<mxfile host="app.diagrams.net" modified="2021-08-23T13:22:08.900Z" agent="5.0 (Windows NT 10.0; Win64; x64) AppleWebKit/537.36 (KHTML, like Gecko) Chrome/92.0.4515.159 Safari/537.36" etag="DPFgNCBigw90H8dtCnqi" version="14.9.8" type="github">
  <diagram id="6a731a19-8d31-9384-78a2-239565b7b9f0" name="Page-1">
    <mxGraphModel dx="1381" dy="1748" grid="0" gridSize="10" guides="1" tooltips="1" connect="1" arrows="1" fold="1" page="0" pageScale="1" pageWidth="1169" pageHeight="827" background="#000000" math="0" shadow="0">
      <root>
        <mxCell id="0" />
        <mxCell id="1" parent="0" />
        <mxCell id="1749" value="Trees" style="rounded=1;whiteSpace=wrap;html=1;shadow=0;labelBackgroundColor=none;strokeColor=none;strokeWidth=3;fillColor=#2F5B7C;fontFamily=Helvetica;fontSize=23;fontColor=#FFFFFF;align=center;fontStyle=0;spacing=5;arcSize=7;perimeterSpacing=2;glass=0;" parent="1" vertex="1">
          <mxGeometry x="2397" y="479.5" width="98" height="54" as="geometry" />
        </mxCell>
        <mxCell id="1746" value="" style="edgeStyle=none;rounded=0;jumpStyle=none;html=1;shadow=0;labelBackgroundColor=none;startArrow=none;startFill=0;endArrow=classic;endFill=1;jettySize=auto;orthogonalLoop=1;strokeWidth=3;fontFamily=Helvetica;fontSize=16;fontColor=#23445D;spacing=5;fillColor=#e3c800;strokeColor=#660066;" parent="1" source="1749" target="T0vurwcoZlo6JB8hRkQS-1782" edge="1">
          <mxGeometry relative="1" as="geometry">
            <mxPoint x="2328.3076923076924" y="1101.6599999999999" as="targetPoint" />
            <mxPoint x="2246" y="683.2585798816567" as="sourcePoint" />
          </mxGeometry>
        </mxCell>
        <mxCell id="T0vurwcoZlo6JB8hRkQS-1781" value="In-order = left, parent, right" style="rounded=1;whiteSpace=wrap;html=1;shadow=0;labelBackgroundColor=none;strokeColor=none;strokeWidth=3;fillColor=#2F5B7C;fontFamily=Helvetica;fontSize=23;fontColor=#FFFFFF;align=center;fontStyle=0;spacing=5;arcSize=7;perimeterSpacing=2;horizontal=1;" parent="1" vertex="1">
          <mxGeometry x="2665" y="442" width="311" height="39" as="geometry" />
        </mxCell>
        <mxCell id="T0vurwcoZlo6JB8hRkQS-1782" value="Heap&lt;br&gt;(left-balenced)" style="rounded=1;whiteSpace=wrap;html=1;shadow=0;labelBackgroundColor=none;strokeColor=none;strokeWidth=3;fillColor=#2F5B7C;fontFamily=Helvetica;fontSize=23;fontColor=#FFFFFF;align=center;fontStyle=0;spacing=5;arcSize=7;perimeterSpacing=2;horizontal=1;verticalAlign=middle;" parent="1" vertex="1">
          <mxGeometry x="2470" y="597" width="209" height="97" as="geometry" />
        </mxCell>
        <mxCell id="T0vurwcoZlo6JB8hRkQS-1786" value="" style="edgeStyle=none;rounded=0;jumpStyle=none;html=1;shadow=0;labelBackgroundColor=none;startArrow=none;startFill=0;endArrow=classic;endFill=1;jettySize=auto;orthogonalLoop=1;strokeWidth=3;fontFamily=Helvetica;fontSize=16;fontColor=#23445D;spacing=5;fillColor=#e3c800;strokeColor=#660066;" parent="1" source="T0vurwcoZlo6JB8hRkQS-1782" target="T0vurwcoZlo6JB8hRkQS-1794" edge="1">
          <mxGeometry relative="1" as="geometry">
            <mxPoint x="2721" y="822" as="sourcePoint" />
            <mxPoint x="2682.6301369863013" y="863.9999999999999" as="targetPoint" />
          </mxGeometry>
        </mxCell>
        <mxCell id="T0vurwcoZlo6JB8hRkQS-1787" value="" style="edgeStyle=none;rounded=0;jumpStyle=none;html=1;shadow=0;labelBackgroundColor=none;startArrow=none;startFill=0;endArrow=classic;endFill=1;jettySize=auto;orthogonalLoop=1;strokeWidth=3;fontFamily=Helvetica;fontSize=16;fontColor=#23445D;spacing=5;fillColor=#e3c800;strokeColor=#660066;" parent="1" source="T0vurwcoZlo6JB8hRkQS-1782" target="T0vurwcoZlo6JB8hRkQS-1795" edge="1">
          <mxGeometry relative="1" as="geometry">
            <mxPoint x="2731" y="832" as="sourcePoint" />
            <mxPoint x="2748.0273972602736" y="863.9999999999999" as="targetPoint" />
          </mxGeometry>
        </mxCell>
        <mxCell id="T0vurwcoZlo6JB8hRkQS-1788" value="" style="edgeStyle=none;rounded=0;jumpStyle=none;html=1;shadow=0;labelBackgroundColor=none;startArrow=none;startFill=0;endArrow=classic;endFill=1;jettySize=auto;orthogonalLoop=1;strokeWidth=3;fontFamily=Helvetica;fontSize=16;fontColor=#23445D;spacing=5;fillColor=#e3c800;strokeColor=#660066;" parent="1" source="1749" target="T0vurwcoZlo6JB8hRkQS-1781" edge="1">
          <mxGeometry relative="1" as="geometry">
            <mxPoint x="2152" y="130.66835187057632" as="sourcePoint" />
            <mxPoint x="2418" y="413.5" as="targetPoint" />
          </mxGeometry>
        </mxCell>
        <mxCell id="T0vurwcoZlo6JB8hRkQS-1789" value="Pre-order = parent, left, right" style="rounded=1;whiteSpace=wrap;html=1;shadow=0;labelBackgroundColor=none;strokeColor=none;strokeWidth=3;fillColor=#2F5B7C;fontFamily=Helvetica;fontSize=23;fontColor=#FFFFFF;align=center;fontStyle=0;spacing=5;arcSize=7;perimeterSpacing=2;horizontal=1;" parent="1" vertex="1">
          <mxGeometry x="2665" y="490" width="311" height="36" as="geometry" />
        </mxCell>
        <mxCell id="T0vurwcoZlo6JB8hRkQS-1791" value="post-order = left, right, parent" style="rounded=1;whiteSpace=wrap;html=1;shadow=0;labelBackgroundColor=none;strokeColor=none;strokeWidth=3;fillColor=#2F5B7C;fontFamily=Helvetica;fontSize=23;fontColor=#FFFFFF;align=center;fontStyle=0;spacing=5;arcSize=7;perimeterSpacing=2;horizontal=1;" parent="1" vertex="1">
          <mxGeometry x="2665" y="533" width="311" height="38" as="geometry" />
        </mxCell>
        <mxCell id="T0vurwcoZlo6JB8hRkQS-1793" value="" style="edgeStyle=none;rounded=0;jumpStyle=none;html=1;shadow=0;labelBackgroundColor=none;startArrow=none;startFill=0;endArrow=classic;endFill=1;jettySize=auto;orthogonalLoop=1;strokeWidth=3;fontFamily=Helvetica;fontSize=16;fontColor=#23445D;spacing=5;fillColor=#e3c800;strokeColor=#660066;" parent="1" source="1749" target="T0vurwcoZlo6JB8hRkQS-1789" edge="1">
          <mxGeometry relative="1" as="geometry">
            <mxPoint x="2152" y="135.46410515672392" as="sourcePoint" />
            <mxPoint x="2310" y="322.0652173913044" as="targetPoint" />
          </mxGeometry>
        </mxCell>
        <mxCell id="T0vurwcoZlo6JB8hRkQS-1794" value="Min" style="rounded=1;whiteSpace=wrap;html=1;shadow=0;labelBackgroundColor=none;strokeColor=none;strokeWidth=3;fillColor=#2F5B7C;fontFamily=Helvetica;fontSize=23;fontColor=#FFFFFF;align=center;fontStyle=0;spacing=5;arcSize=7;perimeterSpacing=2;horizontal=1;verticalAlign=middle;" parent="1" vertex="1">
          <mxGeometry x="2470" y="717" width="79.5" height="43" as="geometry" />
        </mxCell>
        <mxCell id="T0vurwcoZlo6JB8hRkQS-1795" value="Max" style="rounded=1;whiteSpace=wrap;html=1;shadow=0;labelBackgroundColor=none;strokeColor=none;strokeWidth=3;fillColor=#2F5B7C;fontFamily=Helvetica;fontSize=23;fontColor=#FFFFFF;align=center;fontStyle=0;spacing=5;arcSize=7;perimeterSpacing=2;horizontal=1;verticalAlign=middle;" parent="1" vertex="1">
          <mxGeometry x="2600" y="717" width="79" height="41" as="geometry" />
        </mxCell>
        <mxCell id="T0vurwcoZlo6JB8hRkQS-1797" value="" style="edgeStyle=none;rounded=0;jumpStyle=none;html=1;shadow=0;labelBackgroundColor=none;startArrow=none;startFill=0;endArrow=classic;endFill=1;jettySize=auto;orthogonalLoop=1;strokeWidth=3;fontFamily=Helvetica;fontSize=16;fontColor=#23445D;spacing=5;fillColor=#e3c800;strokeColor=#660066;" parent="1" source="1749" target="T0vurwcoZlo6JB8hRkQS-1791" edge="1">
          <mxGeometry relative="1" as="geometry">
            <mxPoint x="2152" y="140.00202224469126" as="sourcePoint" />
            <mxPoint x="2364" y="335.83457249070636" as="targetPoint" />
          </mxGeometry>
        </mxCell>
        <mxCell id="T0vurwcoZlo6JB8hRkQS-1798" value="Graph" style="rounded=1;whiteSpace=wrap;html=1;shadow=0;labelBackgroundColor=none;strokeColor=none;strokeWidth=3;fillColor=#2F5B7C;fontFamily=Helvetica;fontSize=23;fontColor=#FFFFFF;align=center;fontStyle=0;spacing=5;arcSize=7;perimeterSpacing=2;" parent="1" vertex="1">
          <mxGeometry x="1384" y="-275" width="122" height="47" as="geometry" />
        </mxCell>
        <mxCell id="T0vurwcoZlo6JB8hRkQS-1799" value="Data structures" style="rounded=1;whiteSpace=wrap;html=1;shadow=0;labelBackgroundColor=none;strokeColor=none;strokeWidth=3;fillColor=#2F5B7C;fontFamily=Helvetica;fontSize=23;fontColor=#FFFFFF;align=center;fontStyle=0;spacing=5;arcSize=7;perimeterSpacing=2;" parent="1" vertex="1">
          <mxGeometry x="1196" y="-393" width="139" height="64" as="geometry" />
        </mxCell>
        <mxCell id="cFTijlWa25xeLsZB_8mZ-1750" value="" style="edgeStyle=none;rounded=0;jumpStyle=none;html=1;shadow=0;labelBackgroundColor=none;startArrow=none;startFill=0;endArrow=classic;endFill=1;jettySize=auto;orthogonalLoop=1;strokeWidth=3;fontFamily=Helvetica;fontSize=16;fontColor=#23445D;spacing=5;fillColor=#e3c800;strokeColor=#660066;" parent="1" source="T0vurwcoZlo6JB8hRkQS-1798" target="1749" edge="1">
          <mxGeometry relative="1" as="geometry">
            <mxPoint x="233" y="190.688352570829" as="sourcePoint" />
            <mxPoint x="348" y="169.69150052465898" as="targetPoint" />
          </mxGeometry>
        </mxCell>
        <mxCell id="cFTijlWa25xeLsZB_8mZ-1751" value="" style="edgeStyle=none;rounded=0;jumpStyle=none;html=1;shadow=0;labelBackgroundColor=none;startArrow=none;startFill=0;endArrow=classic;endFill=1;jettySize=auto;orthogonalLoop=1;strokeWidth=3;fontFamily=Helvetica;fontSize=16;fontColor=#23445D;spacing=5;fillColor=#e3c800;strokeColor=#660066;" parent="1" source="T0vurwcoZlo6JB8hRkQS-1799" target="T0vurwcoZlo6JB8hRkQS-1798" edge="1">
          <mxGeometry relative="1" as="geometry">
            <mxPoint x="243" y="200.688352570829" as="sourcePoint" />
            <mxPoint x="358" y="179.69150052465898" as="targetPoint" />
          </mxGeometry>
        </mxCell>
        <mxCell id="cFTijlWa25xeLsZB_8mZ-1752" value="Lists" style="rounded=1;whiteSpace=wrap;html=1;shadow=0;labelBackgroundColor=none;strokeColor=none;strokeWidth=3;fillColor=#2F5B7C;fontFamily=Helvetica;fontSize=23;fontColor=#FFFFFF;align=center;fontStyle=0;spacing=5;arcSize=7;perimeterSpacing=2;" parent="1" vertex="1">
          <mxGeometry x="1512" y="-589" width="122" height="47" as="geometry" />
        </mxCell>
        <mxCell id="cFTijlWa25xeLsZB_8mZ-1754" value="" style="edgeStyle=none;rounded=0;jumpStyle=none;html=1;shadow=0;labelBackgroundColor=none;startArrow=none;startFill=0;endArrow=classic;endFill=1;jettySize=auto;orthogonalLoop=1;strokeWidth=3;fontFamily=Helvetica;fontSize=16;fontColor=#23445D;spacing=5;fillColor=#e3c800;strokeColor=#660066;" parent="1" source="T0vurwcoZlo6JB8hRkQS-1799" target="cFTijlWa25xeLsZB_8mZ-1752" edge="1">
          <mxGeometry relative="1" as="geometry">
            <mxPoint x="1440" y="-12" as="sourcePoint" />
            <mxPoint x="1783" y="-62" as="targetPoint" />
          </mxGeometry>
        </mxCell>
        <mxCell id="cFTijlWa25xeLsZB_8mZ-1756" value="" style="edgeStyle=none;rounded=0;jumpStyle=none;html=1;shadow=0;labelBackgroundColor=none;startArrow=none;startFill=0;endArrow=classic;endFill=1;jettySize=auto;orthogonalLoop=1;strokeWidth=3;fontFamily=Helvetica;fontSize=16;fontColor=#23445D;spacing=5;fillColor=#e3c800;strokeColor=#660066;" parent="1" source="cFTijlWa25xeLsZB_8mZ-1752" target="cFTijlWa25xeLsZB_8mZ-1782" edge="1">
          <mxGeometry relative="1" as="geometry">
            <mxPoint x="741.9999999999991" y="-687.2204301075267" as="sourcePoint" />
            <mxPoint x="1472.7040000000006" y="-466.0000000000002" as="targetPoint" />
          </mxGeometry>
        </mxCell>
        <mxCell id="cFTijlWa25xeLsZB_8mZ-1758" value="Sorting Algorithm" style="rounded=1;whiteSpace=wrap;html=1;shadow=0;labelBackgroundColor=none;strokeColor=none;strokeWidth=3;fillColor=#2F5B7C;fontFamily=Helvetica;fontSize=23;fontColor=#FFFFFF;align=center;fontStyle=0;spacing=5;arcSize=7;perimeterSpacing=2;" parent="1" vertex="1">
          <mxGeometry x="83" y="563" width="139" height="64" as="geometry" />
        </mxCell>
        <mxCell id="cFTijlWa25xeLsZB_8mZ-1760" value="Traversal" style="rounded=1;whiteSpace=wrap;html=1;shadow=0;labelBackgroundColor=none;strokeColor=none;strokeWidth=3;fillColor=#2F5B7C;fontFamily=Helvetica;fontSize=23;fontColor=#FFFFFF;align=center;fontStyle=0;spacing=5;arcSize=7;perimeterSpacing=2;" parent="1" vertex="1">
          <mxGeometry x="1290" y="44" width="139" height="64" as="geometry" />
        </mxCell>
        <mxCell id="cFTijlWa25xeLsZB_8mZ-1761" value="" style="edgeStyle=none;rounded=0;jumpStyle=none;html=1;shadow=0;labelBackgroundColor=none;startArrow=none;startFill=0;endArrow=classic;endFill=1;jettySize=auto;orthogonalLoop=1;strokeWidth=3;fontFamily=Helvetica;fontSize=16;fontColor=#23445D;spacing=5;fillColor=#e3c800;strokeColor=#660066;" parent="1" source="T0vurwcoZlo6JB8hRkQS-1798" target="cFTijlWa25xeLsZB_8mZ-1760" edge="1">
          <mxGeometry relative="1" as="geometry">
            <mxPoint x="1373.6810344827572" y="-228" as="sourcePoint" />
            <mxPoint x="-485" y="-232.39350180505426" as="targetPoint" />
          </mxGeometry>
        </mxCell>
        <mxCell id="cFTijlWa25xeLsZB_8mZ-1762" value="Binary search" style="rounded=1;whiteSpace=wrap;html=1;shadow=0;labelBackgroundColor=none;strokeColor=none;strokeWidth=3;fillColor=#2F5B7C;fontFamily=Helvetica;fontSize=23;fontColor=#FFFFFF;align=center;fontStyle=0;spacing=5;arcSize=7;perimeterSpacing=2;horizontal=1;verticalAlign=middle;" parent="1" vertex="1">
          <mxGeometry x="2132" y="467" width="157" height="34" as="geometry" />
        </mxCell>
        <mxCell id="cFTijlWa25xeLsZB_8mZ-1763" value="" style="edgeStyle=none;rounded=0;jumpStyle=none;html=1;shadow=0;labelBackgroundColor=none;startArrow=none;startFill=0;endArrow=classic;endFill=1;jettySize=auto;orthogonalLoop=1;strokeWidth=3;fontFamily=Helvetica;fontSize=16;fontColor=#23445D;spacing=5;fillColor=#e3c800;strokeColor=#660066;" parent="1" source="1749" target="cFTijlWa25xeLsZB_8mZ-1762" edge="1">
          <mxGeometry relative="1" as="geometry">
            <mxPoint x="2170.278145695364" y="998" as="targetPoint" />
            <mxPoint x="2246" y="663.5728476821189" as="sourcePoint" />
          </mxGeometry>
        </mxCell>
        <mxCell id="cFTijlWa25xeLsZB_8mZ-1766" value="Time complexity/ Notations" style="rounded=1;whiteSpace=wrap;html=1;shadow=0;labelBackgroundColor=none;strokeColor=none;strokeWidth=3;fillColor=#2F5B7C;fontFamily=Helvetica;fontSize=23;fontColor=#FFFFFF;align=center;fontStyle=0;spacing=5;arcSize=7;perimeterSpacing=2;glass=0;" parent="1" vertex="1">
          <mxGeometry x="1712" y="-1091" width="141" height="91" as="geometry" />
        </mxCell>
        <mxCell id="cFTijlWa25xeLsZB_8mZ-1767" value="&lt;font style=&quot;font-size: 17px&quot;&gt;Ω(Omega) best-case&lt;/font&gt;" style="rounded=1;whiteSpace=wrap;html=1;shadow=0;labelBackgroundColor=none;strokeColor=none;strokeWidth=3;fillColor=#2F5B7C;fontFamily=Helvetica;fontSize=17;fontColor=#FFFFFF;align=center;fontStyle=0;spacing=5;arcSize=7;perimeterSpacing=2;glass=0;" parent="1" vertex="1">
          <mxGeometry x="1576" y="-965" width="110" height="51.5" as="geometry" />
        </mxCell>
        <mxCell id="cFTijlWa25xeLsZB_8mZ-1770" value="&lt;font style=&quot;font-size: 17px&quot;&gt;Θ(Theta) Average-case&lt;/font&gt;" style="rounded=1;whiteSpace=wrap;html=1;shadow=0;labelBackgroundColor=none;strokeColor=none;strokeWidth=3;fillColor=#2F5B7C;fontFamily=Helvetica;fontSize=17;fontColor=#FFFFFF;align=center;fontStyle=0;spacing=5;arcSize=7;perimeterSpacing=2;glass=0;" parent="1" vertex="1">
          <mxGeometry x="1724" y="-963.75" width="128" height="49" as="geometry" />
        </mxCell>
        <mxCell id="cFTijlWa25xeLsZB_8mZ-1771" value="&lt;font style=&quot;font-size: 17px&quot;&gt;O(big-Oh) worst-case&lt;/font&gt;" style="rounded=1;whiteSpace=wrap;html=1;shadow=0;labelBackgroundColor=none;strokeColor=none;strokeWidth=3;fillColor=#2F5B7C;fontFamily=Helvetica;fontSize=17;fontColor=#FFFFFF;align=center;fontStyle=0;spacing=5;arcSize=7;perimeterSpacing=2;glass=0;" parent="1" vertex="1">
          <mxGeometry x="1899" y="-961.5" width="119" height="50.5" as="geometry" />
        </mxCell>
        <mxCell id="cFTijlWa25xeLsZB_8mZ-1772" value="" style="edgeStyle=none;rounded=0;jumpStyle=none;html=1;shadow=0;labelBackgroundColor=none;startArrow=none;startFill=0;endArrow=classic;endFill=1;jettySize=auto;orthogonalLoop=1;strokeWidth=3;fontFamily=Helvetica;fontSize=16;fontColor=#23445D;spacing=5;fillColor=#e3c800;strokeColor=#660066;" parent="1" source="cFTijlWa25xeLsZB_8mZ-1766" target="cFTijlWa25xeLsZB_8mZ-1767" edge="1">
          <mxGeometry relative="1" as="geometry">
            <mxPoint x="1610.2781456953649" y="-265.5000000000002" as="targetPoint" />
            <mxPoint x="1736.4701986754967" y="-368.5" as="sourcePoint" />
          </mxGeometry>
        </mxCell>
        <mxCell id="cFTijlWa25xeLsZB_8mZ-1773" value="" style="edgeStyle=none;rounded=0;jumpStyle=none;html=1;shadow=0;labelBackgroundColor=none;startArrow=none;startFill=0;endArrow=classic;endFill=1;jettySize=auto;orthogonalLoop=1;strokeWidth=3;fontFamily=Helvetica;fontSize=16;fontColor=#23445D;spacing=5;fillColor=#e3c800;strokeColor=#660066;" parent="1" source="cFTijlWa25xeLsZB_8mZ-1766" target="cFTijlWa25xeLsZB_8mZ-1770" edge="1">
          <mxGeometry relative="1" as="geometry">
            <mxPoint x="1620.2781456953649" y="-255.50000000000023" as="targetPoint" />
            <mxPoint x="1746.4701986754967" y="-358.5" as="sourcePoint" />
          </mxGeometry>
        </mxCell>
        <mxCell id="cFTijlWa25xeLsZB_8mZ-1774" value="" style="edgeStyle=none;rounded=0;jumpStyle=none;html=1;shadow=0;labelBackgroundColor=none;startArrow=none;startFill=0;endArrow=classic;endFill=1;jettySize=auto;orthogonalLoop=1;strokeWidth=3;fontFamily=Helvetica;fontSize=16;fontColor=#23445D;spacing=5;fillColor=#e3c800;strokeColor=#660066;" parent="1" source="cFTijlWa25xeLsZB_8mZ-1766" target="cFTijlWa25xeLsZB_8mZ-1771" edge="1">
          <mxGeometry relative="1" as="geometry">
            <mxPoint x="1630.2781456953649" y="-245.50000000000023" as="targetPoint" />
            <mxPoint x="1756.4701986754967" y="-348.5" as="sourcePoint" />
          </mxGeometry>
        </mxCell>
        <mxCell id="cFTijlWa25xeLsZB_8mZ-1775" value="Bubble Sort" style="rounded=1;whiteSpace=wrap;html=1;shadow=0;labelBackgroundColor=none;strokeColor=none;strokeWidth=3;fillColor=#2F5B7C;fontFamily=Helvetica;fontSize=23;fontColor=#FFFFFF;align=center;fontStyle=0;spacing=5;arcSize=7;perimeterSpacing=2;" parent="1" vertex="1">
          <mxGeometry x="-104" y="368" width="162" height="64" as="geometry" />
        </mxCell>
        <mxCell id="cFTijlWa25xeLsZB_8mZ-1776" value="Vector Lists&lt;span style=&quot;color: rgba(0 , 0 , 0 , 0) ; font-family: monospace ; font-size: 0px&quot;&gt;%3CmxGraphModel%3E%3Croot%3E%3CmxCell%20id%3D%220%22%2F%3E%3CmxCell%20id%3D%221%22%20parent%3D%220%22%2F%3E%3CmxCell%20id%3D%222%22%20value%3D%22Array%20Lists%22%20style%3D%22rounded%3D1%3BwhiteSpace%3Dwrap%3Bhtml%3D1%3Bshadow%3D0%3BlabelBackgroundColor%3Dnone%3BstrokeColor%3Dnone%3BstrokeWidth%3D3%3BfillColor%3D%232F5B7C%3BfontFamily%3DHelvetica%3BfontSize%3D23%3BfontColor%3D%23FFFFFF%3Balign%3Dcenter%3BfontStyle%3D0%3Bspacing%3D5%3BarcSize%3D7%3BperimeterSpacing%3D2%3B%22%20vertex%3D%221%22%20parent%3D%221%22%3E%3CmxGeometry%20x%3D%222005%22%20y%3D%22-123%22%20width%3D%22182%22%20height%3D%2247%22%20as%3D%22geometry%22%2F%3E%3C%2FmxCell%3E%3C%2Froot%3E%3C%2FmxGraphModel%3E&lt;/span&gt;" style="rounded=1;whiteSpace=wrap;html=1;shadow=0;labelBackgroundColor=none;strokeColor=none;strokeWidth=3;fillColor=#2F5B7C;fontFamily=Helvetica;fontSize=23;fontColor=#FFFFFF;align=center;fontStyle=0;spacing=5;arcSize=7;perimeterSpacing=2;" parent="1" vertex="1">
          <mxGeometry x="1721" y="-596" width="182" height="47" as="geometry" />
        </mxCell>
        <mxCell id="cFTijlWa25xeLsZB_8mZ-1777" value="Linked List" style="rounded=1;whiteSpace=wrap;html=1;shadow=0;labelBackgroundColor=none;strokeColor=none;strokeWidth=3;fillColor=#2F5B7C;fontFamily=Helvetica;fontSize=23;fontColor=#FFFFFF;align=center;fontStyle=0;spacing=5;arcSize=7;perimeterSpacing=2;" parent="1" vertex="1">
          <mxGeometry x="1717" y="-534" width="182" height="47" as="geometry" />
        </mxCell>
        <mxCell id="cFTijlWa25xeLsZB_8mZ-1778" value="" style="edgeStyle=none;rounded=0;jumpStyle=none;html=1;shadow=0;labelBackgroundColor=none;startArrow=none;startFill=0;endArrow=classic;endFill=1;jettySize=auto;orthogonalLoop=1;strokeWidth=3;fontFamily=Helvetica;fontSize=16;fontColor=#23445D;spacing=5;fillColor=#e3c800;strokeColor=#660066;" parent="1" source="cFTijlWa25xeLsZB_8mZ-1752" target="cFTijlWa25xeLsZB_8mZ-1776" edge="1">
          <mxGeometry relative="1" as="geometry">
            <mxPoint x="1557.2960000000003" y="-530.0000000000005" as="sourcePoint" />
            <mxPoint x="1482.7040000000006" y="-456.0000000000002" as="targetPoint" />
          </mxGeometry>
        </mxCell>
        <mxCell id="cFTijlWa25xeLsZB_8mZ-1779" value="" style="edgeStyle=none;rounded=0;jumpStyle=none;html=1;shadow=0;labelBackgroundColor=none;startArrow=none;startFill=0;endArrow=classic;endFill=1;jettySize=auto;orthogonalLoop=1;strokeWidth=3;fontFamily=Helvetica;fontSize=16;fontColor=#23445D;spacing=5;fillColor=#e3c800;strokeColor=#660066;" parent="1" source="cFTijlWa25xeLsZB_8mZ-1752" target="cFTijlWa25xeLsZB_8mZ-1777" edge="1">
          <mxGeometry relative="1" as="geometry">
            <mxPoint x="1602.9920000000002" y="-530.0000000000005" as="sourcePoint" />
            <mxPoint x="1661.0079999999998" y="-456.0000000000002" as="targetPoint" />
          </mxGeometry>
        </mxCell>
        <mxCell id="cFTijlWa25xeLsZB_8mZ-1780" value="Adjacency List" style="rounded=1;whiteSpace=wrap;html=1;shadow=0;labelBackgroundColor=none;strokeColor=none;strokeWidth=3;fillColor=#2F5B7C;fontFamily=Helvetica;fontSize=23;fontColor=#FFFFFF;align=center;fontStyle=0;spacing=5;arcSize=7;perimeterSpacing=2;" parent="1" vertex="1">
          <mxGeometry x="1574.5" y="-234" width="182" height="47" as="geometry" />
        </mxCell>
        <mxCell id="cFTijlWa25xeLsZB_8mZ-1782" value="Array Lists" style="rounded=1;whiteSpace=wrap;html=1;shadow=0;labelBackgroundColor=none;strokeColor=none;strokeWidth=3;fillColor=#2F5B7C;fontFamily=Helvetica;fontSize=23;fontColor=#FFFFFF;align=center;fontStyle=0;spacing=5;arcSize=7;perimeterSpacing=2;" parent="1" vertex="1">
          <mxGeometry x="1725" y="-662" width="182" height="47" as="geometry" />
        </mxCell>
        <mxCell id="cFTijlWa25xeLsZB_8mZ-1783" value="" style="edgeStyle=none;rounded=0;jumpStyle=none;html=1;shadow=0;labelBackgroundColor=none;startArrow=none;startFill=0;endArrow=classic;endFill=1;jettySize=auto;orthogonalLoop=1;strokeWidth=3;fontFamily=Helvetica;fontSize=16;fontColor=#23445D;spacing=5;fillColor=#e3c800;strokeColor=#660066;" parent="1" source="T0vurwcoZlo6JB8hRkQS-1798" target="cFTijlWa25xeLsZB_8mZ-1780" edge="1">
          <mxGeometry relative="1" as="geometry">
            <mxPoint x="1433.635135135136" y="-216.00000000000045" as="sourcePoint" />
            <mxPoint x="1343.9864864864867" y="-109" as="targetPoint" />
          </mxGeometry>
        </mxCell>
        <mxCell id="cFTijlWa25xeLsZB_8mZ-1784" value="Adjacency Matrix" style="rounded=1;whiteSpace=wrap;html=1;shadow=0;labelBackgroundColor=none;strokeColor=none;strokeWidth=3;fillColor=#2F5B7C;fontFamily=Helvetica;fontSize=23;fontColor=#FFFFFF;align=center;fontStyle=0;spacing=5;arcSize=7;perimeterSpacing=2;" parent="1" vertex="1">
          <mxGeometry x="1567" y="-325" width="197" height="47" as="geometry" />
        </mxCell>
        <mxCell id="cFTijlWa25xeLsZB_8mZ-1785" value="" style="edgeStyle=none;rounded=0;jumpStyle=none;html=1;shadow=0;labelBackgroundColor=none;startArrow=none;startFill=0;endArrow=classic;endFill=1;jettySize=auto;orthogonalLoop=1;strokeWidth=3;fontFamily=Helvetica;fontSize=16;fontColor=#23445D;spacing=5;fillColor=#e3c800;strokeColor=#660066;" parent="1" source="T0vurwcoZlo6JB8hRkQS-1798" target="cFTijlWa25xeLsZB_8mZ-1784" edge="1">
          <mxGeometry relative="1" as="geometry">
            <mxPoint x="1423.635135135136" y="-226.00000000000045" as="sourcePoint" />
            <mxPoint x="1333.9864864864867" y="-119" as="targetPoint" />
          </mxGeometry>
        </mxCell>
        <mxCell id="cFTijlWa25xeLsZB_8mZ-1786" value="Singly" style="rounded=1;whiteSpace=wrap;html=1;shadow=0;labelBackgroundColor=none;strokeColor=none;strokeWidth=3;fillColor=#2F5B7C;fontFamily=Helvetica;fontSize=23;fontColor=#FFFFFF;align=center;fontStyle=0;spacing=5;arcSize=7;perimeterSpacing=2;" parent="1" vertex="1">
          <mxGeometry x="1677" y="-447" width="97" height="47" as="geometry" />
        </mxCell>
        <mxCell id="cFTijlWa25xeLsZB_8mZ-1788" value="" style="edgeStyle=none;rounded=0;jumpStyle=none;html=1;shadow=0;labelBackgroundColor=none;startArrow=none;startFill=0;endArrow=classic;endFill=1;jettySize=auto;orthogonalLoop=1;strokeWidth=3;fontFamily=Helvetica;fontSize=16;fontColor=#23445D;spacing=5;fillColor=#e3c800;strokeColor=#660066;" parent="1" source="cFTijlWa25xeLsZB_8mZ-1777" target="cFTijlWa25xeLsZB_8mZ-1786" edge="1">
          <mxGeometry relative="1" as="geometry">
            <mxPoint x="1646" y="-540.7553191489365" as="sourcePoint" />
            <mxPoint x="1725" y="-522.2659574468087" as="targetPoint" />
          </mxGeometry>
        </mxCell>
        <mxCell id="cFTijlWa25xeLsZB_8mZ-1789" value="Doubly" style="rounded=1;whiteSpace=wrap;html=1;shadow=0;labelBackgroundColor=none;strokeColor=none;strokeWidth=3;fillColor=#2F5B7C;fontFamily=Helvetica;fontSize=23;fontColor=#FFFFFF;align=center;fontStyle=0;spacing=5;arcSize=7;perimeterSpacing=2;" parent="1" vertex="1">
          <mxGeometry x="1849" y="-447" width="97" height="47" as="geometry" />
        </mxCell>
        <mxCell id="cFTijlWa25xeLsZB_8mZ-1790" value="" style="edgeStyle=none;rounded=0;jumpStyle=none;html=1;shadow=0;labelBackgroundColor=none;startArrow=none;startFill=0;endArrow=classic;endFill=1;jettySize=auto;orthogonalLoop=1;strokeWidth=3;fontFamily=Helvetica;fontSize=16;fontColor=#23445D;spacing=5;fillColor=#e3c800;strokeColor=#660066;" parent="1" source="cFTijlWa25xeLsZB_8mZ-1777" target="cFTijlWa25xeLsZB_8mZ-1789" edge="1">
          <mxGeometry relative="1" as="geometry">
            <mxPoint x="1958.8189655172418" y="-477.50000000000045" as="sourcePoint" />
            <mxPoint x="1900" y="-514.7659574468087" as="targetPoint" />
          </mxGeometry>
        </mxCell>
        <mxCell id="cFTijlWa25xeLsZB_8mZ-1791" value="Bucket Sort" style="rounded=1;whiteSpace=wrap;html=1;shadow=0;labelBackgroundColor=none;strokeColor=none;strokeWidth=3;fillColor=#2F5B7C;fontFamily=Helvetica;fontSize=23;fontColor=#FFFFFF;align=center;fontStyle=0;spacing=5;arcSize=7;perimeterSpacing=2;" parent="1" vertex="1">
          <mxGeometry x="92" y="372" width="161" height="64" as="geometry" />
        </mxCell>
        <mxCell id="cFTijlWa25xeLsZB_8mZ-1792" value="" style="edgeStyle=none;rounded=0;jumpStyle=none;html=1;shadow=0;labelBackgroundColor=none;startArrow=none;startFill=0;endArrow=classic;endFill=1;jettySize=auto;orthogonalLoop=1;strokeWidth=3;fontFamily=Helvetica;fontSize=16;fontColor=#23445D;spacing=5;fillColor=#e3c800;strokeColor=#660066;" parent="1" source="cFTijlWa25xeLsZB_8mZ-1758" target="cFTijlWa25xeLsZB_8mZ-1775" edge="1">
          <mxGeometry relative="1" as="geometry">
            <mxPoint x="163.8761467889908" y="530" as="sourcePoint" />
            <mxPoint x="199" y="710" as="targetPoint" />
          </mxGeometry>
        </mxCell>
        <mxCell id="cFTijlWa25xeLsZB_8mZ-1793" value="" style="edgeStyle=none;rounded=0;jumpStyle=none;html=1;shadow=0;labelBackgroundColor=none;startArrow=none;startFill=0;endArrow=classic;endFill=1;jettySize=auto;orthogonalLoop=1;strokeWidth=3;fontFamily=Helvetica;fontSize=16;fontColor=#23445D;spacing=5;fillColor=#e3c800;strokeColor=#660066;" parent="1" source="cFTijlWa25xeLsZB_8mZ-1758" target="cFTijlWa25xeLsZB_8mZ-1791" edge="1">
          <mxGeometry relative="1" as="geometry">
            <mxPoint x="173.8761467889908" y="540" as="sourcePoint" />
            <mxPoint x="173.1238532110092" y="580.9999999999998" as="targetPoint" />
          </mxGeometry>
        </mxCell>
        <mxCell id="cFTijlWa25xeLsZB_8mZ-1794" value="Insertion Sort" style="rounded=1;whiteSpace=wrap;html=1;shadow=0;labelBackgroundColor=none;strokeColor=none;strokeWidth=3;fillColor=#2F5B7C;fontFamily=Helvetica;fontSize=23;fontColor=#FFFFFF;align=center;fontStyle=0;spacing=5;arcSize=7;perimeterSpacing=2;" parent="1" vertex="1">
          <mxGeometry x="356" y="552" width="167" height="64" as="geometry" />
        </mxCell>
        <mxCell id="cFTijlWa25xeLsZB_8mZ-1796" value="" style="edgeStyle=none;rounded=0;jumpStyle=none;html=1;shadow=0;labelBackgroundColor=none;startArrow=none;startFill=0;endArrow=classic;endFill=1;jettySize=auto;orthogonalLoop=1;strokeWidth=3;fontFamily=Helvetica;fontSize=16;fontColor=#23445D;spacing=5;fillColor=#e3c800;strokeColor=#660066;" parent="1" source="cFTijlWa25xeLsZB_8mZ-1758" target="cFTijlWa25xeLsZB_8mZ-1794" edge="1">
          <mxGeometry relative="1" as="geometry">
            <mxPoint x="224" y="817" as="sourcePoint" />
            <mxPoint x="199" y="932" as="targetPoint" />
          </mxGeometry>
        </mxCell>
        <mxCell id="cFTijlWa25xeLsZB_8mZ-1797" value="" style="edgeStyle=none;rounded=0;jumpStyle=none;html=1;shadow=0;labelBackgroundColor=none;startArrow=none;startFill=0;endArrow=classic;endFill=1;jettySize=auto;orthogonalLoop=1;strokeWidth=3;fontFamily=Helvetica;fontSize=16;fontColor=#23445D;spacing=5;fillColor=#e3c800;strokeColor=#660066;" parent="1" source="cFTijlWa25xeLsZB_8mZ-1758" target="cFTijlWa25xeLsZB_8mZ-1798" edge="1">
          <mxGeometry relative="1" as="geometry">
            <mxPoint x="220.20940170940185" y="850.9999999999998" as="sourcePoint" />
            <mxPoint x="348.13207547169804" y="773" as="targetPoint" />
          </mxGeometry>
        </mxCell>
        <mxCell id="cFTijlWa25xeLsZB_8mZ-1798" value="Counting Sort" style="rounded=1;whiteSpace=wrap;html=1;shadow=0;labelBackgroundColor=none;strokeColor=none;strokeWidth=3;fillColor=#2F5B7C;fontFamily=Helvetica;fontSize=23;fontColor=#FFFFFF;align=center;fontStyle=0;spacing=5;arcSize=7;perimeterSpacing=2;" parent="1" vertex="1">
          <mxGeometry x="324" y="386" width="166" height="64" as="geometry" />
        </mxCell>
        <mxCell id="cFTijlWa25xeLsZB_8mZ-1799" value="Selection Sort" style="rounded=1;whiteSpace=wrap;html=1;shadow=0;labelBackgroundColor=none;strokeColor=none;strokeWidth=3;fontFamily=Helvetica;fontSize=23;fontColor=#FFFFFF;align=center;fontStyle=0;spacing=5;arcSize=7;perimeterSpacing=2;fillColor=#CC0000;" parent="1" vertex="1">
          <mxGeometry x="311" y="674" width="167" height="64" as="geometry" />
        </mxCell>
        <mxCell id="cFTijlWa25xeLsZB_8mZ-1800" value="" style="edgeStyle=none;rounded=0;jumpStyle=none;html=1;shadow=0;labelBackgroundColor=none;startArrow=none;startFill=0;endArrow=classic;endFill=1;jettySize=auto;orthogonalLoop=1;strokeWidth=3;fontFamily=Helvetica;fontSize=16;fontColor=#23445D;spacing=5;fillColor=#e3c800;strokeColor=#660066;" parent="1" source="cFTijlWa25xeLsZB_8mZ-1758" target="cFTijlWa25xeLsZB_8mZ-1799" edge="1">
          <mxGeometry relative="1" as="geometry">
            <mxPoint x="234" y="631.7222222222224" as="sourcePoint" />
            <mxPoint x="374" y="684.0454545454545" as="targetPoint" />
          </mxGeometry>
        </mxCell>
        <mxCell id="cFTijlWa25xeLsZB_8mZ-1801" value="Radix Sort" style="rounded=1;whiteSpace=wrap;html=1;shadow=0;labelBackgroundColor=none;strokeColor=none;strokeWidth=3;fillColor=#2F5B7C;fontFamily=Helvetica;fontSize=23;fontColor=#FFFFFF;align=center;fontStyle=0;spacing=5;arcSize=7;perimeterSpacing=2;" parent="1" vertex="1">
          <mxGeometry x="177" y="769.5" width="167" height="64" as="geometry" />
        </mxCell>
        <mxCell id="cFTijlWa25xeLsZB_8mZ-1802" value="" style="edgeStyle=none;rounded=0;jumpStyle=none;html=1;shadow=0;labelBackgroundColor=none;startArrow=none;startFill=0;endArrow=classic;endFill=1;jettySize=auto;orthogonalLoop=1;strokeWidth=3;fontFamily=Helvetica;fontSize=16;fontColor=#23445D;spacing=5;fillColor=#e3c800;strokeColor=#660066;" parent="1" source="cFTijlWa25xeLsZB_8mZ-1758" target="cFTijlWa25xeLsZB_8mZ-1801" edge="1">
          <mxGeometry relative="1" as="geometry">
            <mxPoint x="234" y="637.7954545454545" as="sourcePoint" />
            <mxPoint x="330.3738738738739" y="682" as="targetPoint" />
          </mxGeometry>
        </mxCell>
        <mxCell id="cFTijlWa25xeLsZB_8mZ-1803" value="Heap Sort" style="rounded=1;whiteSpace=wrap;html=1;shadow=0;labelBackgroundColor=none;strokeColor=none;strokeWidth=3;fillColor=#2F5B7C;fontFamily=Helvetica;fontSize=23;fontColor=#FFFFFF;align=center;fontStyle=0;spacing=5;arcSize=7;perimeterSpacing=2;" parent="1" vertex="1">
          <mxGeometry x="-43" y="774" width="167" height="64" as="geometry" />
        </mxCell>
        <mxCell id="cFTijlWa25xeLsZB_8mZ-1804" value="" style="edgeStyle=none;rounded=0;jumpStyle=none;html=1;shadow=0;labelBackgroundColor=none;startArrow=none;startFill=0;endArrow=classic;endFill=1;jettySize=auto;orthogonalLoop=1;strokeWidth=3;fontFamily=Helvetica;fontSize=16;fontColor=#23445D;spacing=5;fillColor=#e3c800;strokeColor=#660066;" parent="1" source="cFTijlWa25xeLsZB_8mZ-1758" target="cFTijlWa25xeLsZB_8mZ-1803" edge="1">
          <mxGeometry relative="1" as="geometry">
            <mxPoint x="180.28208232445513" y="639" as="sourcePoint" />
            <mxPoint x="252.71791767554487" y="777.5" as="targetPoint" />
          </mxGeometry>
        </mxCell>
        <mxCell id="cFTijlWa25xeLsZB_8mZ-1805" value="Singelton element (empty list)" style="rounded=1;whiteSpace=wrap;html=1;shadow=0;labelBackgroundColor=none;strokeColor=none;strokeWidth=3;fillColor=#2F5B7C;fontFamily=Helvetica;fontSize=23;fontColor=#FFFFFF;align=center;fontStyle=0;spacing=5;arcSize=7;perimeterSpacing=2;" parent="1" vertex="1">
          <mxGeometry x="1471" y="-716" width="222" height="61" as="geometry" />
        </mxCell>
        <mxCell id="cFTijlWa25xeLsZB_8mZ-1806" value="" style="edgeStyle=none;rounded=0;jumpStyle=none;html=1;shadow=0;labelBackgroundColor=none;startArrow=none;startFill=0;endArrow=classic;endFill=1;jettySize=auto;orthogonalLoop=1;strokeWidth=3;fontFamily=Helvetica;fontSize=16;fontColor=#23445D;spacing=5;fillColor=#e3c800;strokeColor=#660066;" parent="1" source="cFTijlWa25xeLsZB_8mZ-1752" target="cFTijlWa25xeLsZB_8mZ-1805" edge="1">
          <mxGeometry relative="1" as="geometry">
            <mxPoint x="1646" y="-574.4259259259261" as="sourcePoint" />
            <mxPoint x="1741.1164383561645" y="-603" as="targetPoint" />
          </mxGeometry>
        </mxCell>
        <mxCell id="cFTijlWa25xeLsZB_8mZ-1807" value="&lt;font style=&quot;font-size: 17px&quot;&gt;asymptotically slower/faster&lt;/font&gt;" style="rounded=1;whiteSpace=wrap;html=1;shadow=0;labelBackgroundColor=none;strokeColor=none;strokeWidth=3;fillColor=#2F5B7C;fontFamily=Helvetica;fontSize=17;fontColor=#FFFFFF;align=center;fontStyle=0;spacing=5;arcSize=7;perimeterSpacing=2;glass=0;" parent="1" vertex="1">
          <mxGeometry x="1899" y="-874.5" width="119" height="50.5" as="geometry" />
        </mxCell>
        <mxCell id="cFTijlWa25xeLsZB_8mZ-1808" value="" style="edgeStyle=none;rounded=0;jumpStyle=none;html=1;shadow=0;labelBackgroundColor=none;startArrow=none;startFill=0;endArrow=classic;endFill=1;jettySize=auto;orthogonalLoop=1;strokeWidth=3;fontFamily=Helvetica;fontSize=16;fontColor=#23445D;spacing=5;fillColor=#e3c800;strokeColor=#660066;" parent="1" source="cFTijlWa25xeLsZB_8mZ-1771" target="cFTijlWa25xeLsZB_8mZ-1807" edge="1">
          <mxGeometry relative="1" as="geometry">
            <mxPoint x="1504.4772234273319" y="-471.5" as="targetPoint" />
            <mxPoint x="1415.65726681128" y="-530.5" as="sourcePoint" />
          </mxGeometry>
        </mxCell>
        <mxCell id="cFTijlWa25xeLsZB_8mZ-1809" value="Topilogical Sort" style="rounded=1;whiteSpace=wrap;html=1;shadow=0;labelBackgroundColor=none;strokeColor=none;strokeWidth=3;fillColor=#2F5B7C;fontFamily=Helvetica;fontSize=23;fontColor=#FFFFFF;align=center;fontStyle=0;spacing=5;arcSize=7;perimeterSpacing=2;" parent="1" vertex="1">
          <mxGeometry x="1105" y="-227" width="139" height="64" as="geometry" />
        </mxCell>
        <mxCell id="cFTijlWa25xeLsZB_8mZ-1810" value="" style="edgeStyle=none;rounded=0;jumpStyle=none;html=1;shadow=0;labelBackgroundColor=none;startArrow=none;startFill=0;endArrow=classic;endFill=1;jettySize=auto;orthogonalLoop=1;strokeWidth=3;fontFamily=Helvetica;fontSize=16;fontColor=#23445D;spacing=5;fillColor=#e3c800;strokeColor=#660066;" parent="1" source="T0vurwcoZlo6JB8hRkQS-1798" target="cFTijlWa25xeLsZB_8mZ-1809" edge="1">
          <mxGeometry relative="1" as="geometry">
            <mxPoint x="1532.0000000000005" y="-137.5689655172414" as="sourcePoint" />
            <mxPoint x="1449.0000000000005" y="-116.58045977011511" as="targetPoint" />
          </mxGeometry>
        </mxCell>
        <mxCell id="cFTijlWa25xeLsZB_8mZ-1812" value="Bredth-first Search" style="rounded=1;whiteSpace=wrap;html=1;shadow=0;labelBackgroundColor=none;strokeColor=none;strokeWidth=3;fillColor=#2F5B7C;fontFamily=Helvetica;fontSize=23;fontColor=#FFFFFF;align=center;fontStyle=0;spacing=5;arcSize=7;perimeterSpacing=2;" parent="1" vertex="1">
          <mxGeometry x="1045" y="128" width="139" height="64" as="geometry" />
        </mxCell>
        <mxCell id="cFTijlWa25xeLsZB_8mZ-1813" value="" style="edgeStyle=none;rounded=0;jumpStyle=none;html=1;shadow=0;labelBackgroundColor=none;startArrow=none;startFill=0;endArrow=classic;endFill=1;jettySize=auto;orthogonalLoop=1;strokeWidth=3;fontFamily=Helvetica;fontSize=16;fontColor=#23445D;spacing=5;fillColor=#e3c800;strokeColor=#660066;" parent="1" source="cFTijlWa25xeLsZB_8mZ-1760" target="cFTijlWa25xeLsZB_8mZ-1812" edge="1">
          <mxGeometry relative="1" as="geometry">
            <mxPoint x="1540.2062146892658" y="116.49999999999977" as="sourcePoint" />
            <mxPoint x="1634.0000000000005" y="74.41954022988489" as="targetPoint" />
          </mxGeometry>
        </mxCell>
        <mxCell id="cFTijlWa25xeLsZB_8mZ-1814" value="Depth-first Search" style="rounded=1;whiteSpace=wrap;html=1;shadow=0;labelBackgroundColor=none;strokeColor=none;strokeWidth=3;fillColor=#2F5B7C;fontFamily=Helvetica;fontSize=23;fontColor=#FFFFFF;align=center;fontStyle=0;spacing=5;arcSize=7;perimeterSpacing=2;" parent="1" vertex="1">
          <mxGeometry x="1043" y="47.5" width="139" height="64" as="geometry" />
        </mxCell>
        <mxCell id="cFTijlWa25xeLsZB_8mZ-1815" value="" style="edgeStyle=none;rounded=0;jumpStyle=none;html=1;shadow=0;labelBackgroundColor=none;startArrow=none;startFill=0;endArrow=classic;endFill=1;jettySize=auto;orthogonalLoop=1;strokeWidth=3;fontFamily=Helvetica;fontSize=16;fontColor=#23445D;spacing=5;fillColor=#e3c800;strokeColor=#660066;" parent="1" source="cFTijlWa25xeLsZB_8mZ-1760" target="cFTijlWa25xeLsZB_8mZ-1814" edge="1">
          <mxGeometry relative="1" as="geometry">
            <mxPoint x="1220.2062146892658" y="116.49999999999977" as="sourcePoint" />
            <mxPoint x="1314.0000000000005" y="74.41954022988489" as="targetPoint" />
          </mxGeometry>
        </mxCell>
        <mxCell id="cFTijlWa25xeLsZB_8mZ-1816" value="Dijkstra&#39;s algorithm" style="rounded=1;whiteSpace=wrap;html=1;shadow=0;labelBackgroundColor=none;strokeColor=none;strokeWidth=3;fillColor=#2F5B7C;fontFamily=Helvetica;fontSize=23;fontColor=#FFFFFF;align=center;fontStyle=0;spacing=5;arcSize=7;perimeterSpacing=2;" parent="1" vertex="1">
          <mxGeometry x="1403.31" y="227.5" width="139" height="64" as="geometry" />
        </mxCell>
        <mxCell id="cFTijlWa25xeLsZB_8mZ-1817" value="" style="edgeStyle=none;rounded=0;jumpStyle=none;html=1;shadow=0;labelBackgroundColor=none;startArrow=none;startFill=0;endArrow=classic;endFill=1;jettySize=auto;orthogonalLoop=1;strokeWidth=3;fontFamily=Helvetica;fontSize=16;fontColor=#23445D;spacing=5;fillColor=#e3c800;strokeColor=#660066;" parent="1" source="PjtQzTcsDSTkfEky3M2W-1763" target="cFTijlWa25xeLsZB_8mZ-1816" edge="1">
          <mxGeometry relative="1" as="geometry">
            <mxPoint x="1417.2062146892658" y="246.99999999999977" as="sourcePoint" />
            <mxPoint x="1438.999999999999" y="229.50000000000045" as="targetPoint" />
          </mxGeometry>
        </mxCell>
        <mxCell id="PjtQzTcsDSTkfEky3M2W-1749" value="Binary" style="rounded=1;whiteSpace=wrap;html=1;shadow=0;labelBackgroundColor=none;strokeColor=none;strokeWidth=3;fontFamily=Helvetica;fontSize=23;fontColor=#FFFFFF;align=center;fontStyle=0;spacing=5;arcSize=7;perimeterSpacing=2;fillColor=#CC0000;" parent="1" vertex="1">
          <mxGeometry x="575" y="592" width="109" height="64" as="geometry" />
        </mxCell>
        <mxCell id="PjtQzTcsDSTkfEky3M2W-1750" value="" style="edgeStyle=none;rounded=0;jumpStyle=none;html=1;shadow=0;labelBackgroundColor=none;startArrow=none;startFill=0;endArrow=classic;endFill=1;jettySize=auto;orthogonalLoop=1;strokeWidth=3;fontFamily=Helvetica;fontSize=16;fontColor=#23445D;spacing=5;fillColor=#e3c800;strokeColor=#660066;" parent="1" source="cFTijlWa25xeLsZB_8mZ-1794" target="PjtQzTcsDSTkfEky3M2W-1749" edge="1">
          <mxGeometry relative="1" as="geometry">
            <mxPoint x="523" y="560.259581881533" as="sourcePoint" />
            <mxPoint x="498" y="900" as="targetPoint" />
          </mxGeometry>
        </mxCell>
        <mxCell id="PjtQzTcsDSTkfEky3M2W-1751" value="Linear" style="rounded=1;whiteSpace=wrap;html=1;shadow=0;labelBackgroundColor=none;strokeColor=none;strokeWidth=3;fillColor=#2F5B7C;fontFamily=Helvetica;fontSize=23;fontColor=#FFFFFF;align=center;fontStyle=0;spacing=5;arcSize=7;perimeterSpacing=2;" parent="1" vertex="1">
          <mxGeometry x="575" y="512" width="109" height="64" as="geometry" />
        </mxCell>
        <mxCell id="PjtQzTcsDSTkfEky3M2W-1752" value="" style="edgeStyle=none;rounded=0;jumpStyle=none;html=1;shadow=0;labelBackgroundColor=none;startArrow=none;startFill=0;endArrow=classic;endFill=1;jettySize=auto;orthogonalLoop=1;strokeWidth=3;fontFamily=Helvetica;fontSize=16;fontColor=#23445D;spacing=5;fillColor=#e3c800;strokeColor=#660066;" parent="1" source="cFTijlWa25xeLsZB_8mZ-1794" target="PjtQzTcsDSTkfEky3M2W-1751" edge="1">
          <mxGeometry relative="1" as="geometry">
            <mxPoint x="529" y="657.8666666666668" as="sourcePoint" />
            <mxPoint x="502" y="984" as="targetPoint" />
          </mxGeometry>
        </mxCell>
        <mxCell id="PjtQzTcsDSTkfEky3M2W-1753" value="Hash" style="rounded=1;whiteSpace=wrap;html=1;shadow=0;labelBackgroundColor=none;strokeColor=none;strokeWidth=3;fillColor=#2F5B7C;fontFamily=Helvetica;fontSize=23;fontColor=#FFFFFF;align=center;fontStyle=0;spacing=5;arcSize=7;perimeterSpacing=2;glass=0;" parent="1" vertex="1">
          <mxGeometry x="1038" y="-478" width="98" height="54" as="geometry" />
        </mxCell>
        <mxCell id="PjtQzTcsDSTkfEky3M2W-1754" value="" style="edgeStyle=none;rounded=0;jumpStyle=none;html=1;shadow=0;labelBackgroundColor=none;startArrow=none;startFill=0;endArrow=classic;endFill=1;jettySize=auto;orthogonalLoop=1;strokeWidth=3;fontFamily=Helvetica;fontSize=16;fontColor=#23445D;spacing=5;fillColor=#e3c800;strokeColor=#660066;" parent="1" source="T0vurwcoZlo6JB8hRkQS-1799" target="PjtQzTcsDSTkfEky3M2W-1753" edge="1">
          <mxGeometry relative="1" as="geometry">
            <mxPoint x="1204" y="-347.50227531285555" as="sourcePoint" />
            <mxPoint x="887" y="-331.99488054607514" as="targetPoint" />
          </mxGeometry>
        </mxCell>
        <mxCell id="PjtQzTcsDSTkfEky3M2W-1755" value="tables" style="rounded=1;whiteSpace=wrap;html=1;shadow=0;labelBackgroundColor=none;strokeColor=none;strokeWidth=3;fillColor=#2F5B7C;fontFamily=Helvetica;fontSize=23;fontColor=#FFFFFF;align=center;fontStyle=0;spacing=5;arcSize=7;perimeterSpacing=2;glass=0;" parent="1" vertex="1">
          <mxGeometry x="1084" y="-566" width="98" height="54" as="geometry" />
        </mxCell>
        <mxCell id="PjtQzTcsDSTkfEky3M2W-1756" value="" style="edgeStyle=none;rounded=0;jumpStyle=none;html=1;shadow=0;labelBackgroundColor=none;startArrow=none;startFill=0;endArrow=classic;endFill=1;jettySize=auto;orthogonalLoop=1;strokeWidth=3;fontFamily=Helvetica;fontSize=16;fontColor=#23445D;spacing=5;fillColor=#e3c800;strokeColor=#660066;" parent="1" source="PjtQzTcsDSTkfEky3M2W-1753" target="PjtQzTcsDSTkfEky3M2W-1755" edge="1">
          <mxGeometry relative="1" as="geometry">
            <mxPoint x="1447.8299663299663" y="-286" as="sourcePoint" />
            <mxPoint x="1094" y="-222.99488054607514" as="targetPoint" />
          </mxGeometry>
        </mxCell>
        <mxCell id="PjtQzTcsDSTkfEky3M2W-1757" value="map" style="rounded=1;whiteSpace=wrap;html=1;shadow=0;labelBackgroundColor=none;strokeColor=none;strokeWidth=3;fillColor=#2F5B7C;fontFamily=Helvetica;fontSize=23;fontColor=#FFFFFF;align=center;fontStyle=0;spacing=5;arcSize=7;perimeterSpacing=2;glass=0;" parent="1" vertex="1">
          <mxGeometry x="923" y="-570" width="98" height="54" as="geometry" />
        </mxCell>
        <mxCell id="PjtQzTcsDSTkfEky3M2W-1758" value="" style="edgeStyle=none;rounded=0;jumpStyle=none;html=1;shadow=0;labelBackgroundColor=none;startArrow=none;startFill=0;endArrow=classic;endFill=1;jettySize=auto;orthogonalLoop=1;strokeWidth=3;fontFamily=Helvetica;fontSize=16;fontColor=#23445D;spacing=5;fillColor=#e3c800;strokeColor=#660066;" parent="1" source="PjtQzTcsDSTkfEky3M2W-1753" target="PjtQzTcsDSTkfEky3M2W-1757" edge="1">
          <mxGeometry relative="1" as="geometry">
            <mxPoint x="1162.8299663299663" y="-280" as="sourcePoint" />
            <mxPoint x="809" y="-216.99488054607514" as="targetPoint" />
          </mxGeometry>
        </mxCell>
        <mxCell id="PjtQzTcsDSTkfEky3M2W-1759" value="linear" style="rounded=1;whiteSpace=wrap;html=1;shadow=0;labelBackgroundColor=none;strokeColor=none;strokeWidth=3;fillColor=#2F5B7C;fontFamily=Helvetica;fontSize=23;fontColor=#FFFFFF;align=center;fontStyle=0;spacing=5;arcSize=7;perimeterSpacing=2;glass=0;" parent="1" vertex="1">
          <mxGeometry x="782" y="-863" width="114.31" height="72" as="geometry" />
        </mxCell>
        <mxCell id="PjtQzTcsDSTkfEky3M2W-1760" value="" style="edgeStyle=none;rounded=0;jumpStyle=none;html=1;shadow=0;labelBackgroundColor=none;startArrow=none;startFill=0;endArrow=classic;endFill=1;jettySize=auto;orthogonalLoop=1;strokeWidth=3;fontFamily=Helvetica;fontSize=16;fontColor=#23445D;spacing=5;fillColor=#e3c800;strokeColor=#660066;" parent="1" source="w8jLu82rJHzHp2l2UyBu-1750" target="w8jLu82rJHzHp2l2UyBu-1749" edge="1">
          <mxGeometry relative="1" as="geometry">
            <mxPoint x="1115.9961224489798" y="-530" as="sourcePoint" />
            <mxPoint x="1388" y="-819" as="targetPoint" />
          </mxGeometry>
        </mxCell>
        <mxCell id="PjtQzTcsDSTkfEky3M2W-1761" value="Deletetion" style="rounded=1;whiteSpace=wrap;html=1;shadow=0;labelBackgroundColor=none;strokeColor=none;strokeWidth=3;fillColor=#2F5B7C;fontFamily=Helvetica;fontSize=23;fontColor=#FFFFFF;align=center;fontStyle=0;spacing=5;arcSize=7;perimeterSpacing=2;glass=0;" parent="1" vertex="1">
          <mxGeometry x="2263" y="646" width="137" height="54" as="geometry" />
        </mxCell>
        <mxCell id="PjtQzTcsDSTkfEky3M2W-1762" value="" style="edgeStyle=none;rounded=0;jumpStyle=none;html=1;shadow=0;labelBackgroundColor=none;startArrow=none;startFill=0;endArrow=classic;endFill=1;jettySize=auto;orthogonalLoop=1;strokeWidth=3;fontFamily=Helvetica;fontSize=16;fontColor=#23445D;spacing=5;fillColor=#e3c800;strokeColor=#660066;" parent="1" source="T0vurwcoZlo6JB8hRkQS-1782" target="PjtQzTcsDSTkfEky3M2W-1761" edge="1">
          <mxGeometry relative="1" as="geometry">
            <mxPoint x="2374" y="601" as="targetPoint" />
            <mxPoint x="2688.140649149923" y="392.5" as="sourcePoint" />
          </mxGeometry>
        </mxCell>
        <mxCell id="PjtQzTcsDSTkfEky3M2W-1763" value="Shortest path" style="rounded=1;whiteSpace=wrap;html=1;shadow=0;labelBackgroundColor=none;strokeColor=none;strokeWidth=3;fillColor=#2F5B7C;fontFamily=Helvetica;fontSize=23;fontColor=#FFFFFF;align=center;fontStyle=0;spacing=5;arcSize=7;perimeterSpacing=2;" parent="1" vertex="1">
          <mxGeometry x="1292" y="135.5" width="139" height="64" as="geometry" />
        </mxCell>
        <mxCell id="PjtQzTcsDSTkfEky3M2W-1764" value="" style="edgeStyle=none;rounded=0;jumpStyle=none;html=1;shadow=0;labelBackgroundColor=none;startArrow=none;startFill=0;endArrow=classic;endFill=1;jettySize=auto;orthogonalLoop=1;strokeWidth=3;fontFamily=Helvetica;fontSize=16;fontColor=#23445D;spacing=5;fillColor=#e3c800;strokeColor=#660066;" parent="1" source="cFTijlWa25xeLsZB_8mZ-1760" target="PjtQzTcsDSTkfEky3M2W-1763" edge="1">
          <mxGeometry relative="1" as="geometry">
            <mxPoint x="1591.2062146892658" y="342.4999999999998" as="sourcePoint" />
            <mxPoint x="1571.332898172324" y="329" as="targetPoint" />
          </mxGeometry>
        </mxCell>
        <mxCell id="PjtQzTcsDSTkfEky3M2W-1765" value="Bellman Ford&#39;s algorithm" style="rounded=1;whiteSpace=wrap;html=1;shadow=0;labelBackgroundColor=none;strokeColor=none;strokeWidth=3;fillColor=#2F5B7C;fontFamily=Helvetica;fontSize=23;fontColor=#FFFFFF;align=center;fontStyle=0;spacing=5;arcSize=7;perimeterSpacing=2;" parent="1" vertex="1">
          <mxGeometry x="1188" y="231.5" width="165" height="64" as="geometry" />
        </mxCell>
        <mxCell id="PjtQzTcsDSTkfEky3M2W-1766" value="" style="edgeStyle=none;rounded=0;jumpStyle=none;html=1;shadow=0;labelBackgroundColor=none;startArrow=none;startFill=0;endArrow=classic;endFill=1;jettySize=auto;orthogonalLoop=1;strokeWidth=3;fontFamily=Helvetica;fontSize=16;fontColor=#23445D;spacing=5;fillColor=#e3c800;strokeColor=#660066;" parent="1" source="PjtQzTcsDSTkfEky3M2W-1763" target="PjtQzTcsDSTkfEky3M2W-1765" edge="1">
          <mxGeometry relative="1" as="geometry">
            <mxPoint x="1194" y="216.5" as="sourcePoint" />
            <mxPoint x="1301.0000000000005" y="219.9195402298849" as="targetPoint" />
          </mxGeometry>
        </mxCell>
        <mxCell id="PjtQzTcsDSTkfEky3M2W-1767" value="open adressing/ closed hashing" style="rounded=1;whiteSpace=wrap;html=1;shadow=0;labelBackgroundColor=none;strokeColor=none;strokeWidth=3;fillColor=#2F5B7C;fontFamily=Helvetica;fontSize=23;fontColor=#FFFFFF;align=center;fontStyle=0;spacing=5;arcSize=7;perimeterSpacing=2;glass=0;" parent="1" vertex="1">
          <mxGeometry x="1014" y="-767" width="244" height="94" as="geometry" />
        </mxCell>
        <mxCell id="PjtQzTcsDSTkfEky3M2W-1768" value="" style="edgeStyle=none;rounded=0;jumpStyle=none;html=1;shadow=0;labelBackgroundColor=none;startArrow=none;startFill=0;endArrow=classic;endFill=1;jettySize=auto;orthogonalLoop=1;strokeWidth=3;fontFamily=Helvetica;fontSize=16;fontColor=#23445D;spacing=5;fillColor=#e3c800;strokeColor=#660066;" parent="1" source="PjtQzTcsDSTkfEky3M2W-1755" target="PjtQzTcsDSTkfEky3M2W-1767" edge="1">
          <mxGeometry relative="1" as="geometry">
            <mxPoint x="1196.0037631578948" y="-480" as="sourcePoint" />
            <mxPoint x="1206.8000000000002" y="-284.99488054607514" as="targetPoint" />
          </mxGeometry>
        </mxCell>
        <mxCell id="PjtQzTcsDSTkfEky3M2W-1769" value="" style="edgeStyle=none;rounded=0;jumpStyle=none;html=1;shadow=0;labelBackgroundColor=none;startArrow=none;startFill=0;endArrow=classic;endFill=1;jettySize=auto;orthogonalLoop=1;strokeWidth=3;fontFamily=Helvetica;fontSize=16;fontColor=#23445D;spacing=5;fillColor=#e3c800;strokeColor=#660066;" parent="1" source="w8jLu82rJHzHp2l2UyBu-1750" target="PjtQzTcsDSTkfEky3M2W-1759" edge="1">
          <mxGeometry relative="1" as="geometry">
            <mxPoint x="1237.7658552631578" y="-452" as="sourcePoint" />
            <mxPoint x="1103.0025" y="-613" as="targetPoint" />
          </mxGeometry>
        </mxCell>
        <mxCell id="PjtQzTcsDSTkfEky3M2W-1770" value="" style="edgeStyle=none;rounded=0;jumpStyle=none;html=1;shadow=0;labelBackgroundColor=none;startArrow=none;startFill=0;endArrow=classic;endFill=1;jettySize=auto;orthogonalLoop=1;strokeWidth=3;fontFamily=Helvetica;fontSize=16;fontColor=#23445D;spacing=5;fillColor=#e3c800;strokeColor=#660066;" parent="1" source="PjtQzTcsDSTkfEky3M2W-1757" target="PjtQzTcsDSTkfEky3M2W-1767" edge="1">
          <mxGeometry relative="1" as="geometry">
            <mxPoint x="1133.2523947368422" y="-510" as="sourcePoint" />
            <mxPoint x="1142.6360000000004" y="-633" as="targetPoint" />
          </mxGeometry>
        </mxCell>
        <mxCell id="w8jLu82rJHzHp2l2UyBu-1749" value="quadratic" style="rounded=1;whiteSpace=wrap;html=1;shadow=0;labelBackgroundColor=none;strokeColor=none;strokeWidth=3;fontFamily=Helvetica;fontSize=23;fontColor=#FFFFFF;align=center;fontStyle=0;spacing=5;arcSize=7;perimeterSpacing=2;glass=0;fillColor=#CC0000;" parent="1" vertex="1">
          <mxGeometry x="931" y="-866" width="114.31" height="72" as="geometry" />
        </mxCell>
        <mxCell id="w8jLu82rJHzHp2l2UyBu-1750" value="probing" style="rounded=1;whiteSpace=wrap;html=1;shadow=0;labelBackgroundColor=none;strokeColor=none;strokeWidth=3;fillColor=#2F5B7C;fontFamily=Helvetica;fontSize=23;fontColor=#FFFFFF;align=center;fontStyle=0;spacing=5;arcSize=7;perimeterSpacing=2;glass=0;" parent="1" vertex="1">
          <mxGeometry x="856" y="-762" width="114.31" height="72" as="geometry" />
        </mxCell>
        <mxCell id="w8jLu82rJHzHp2l2UyBu-1751" value="" style="edgeStyle=none;rounded=0;jumpStyle=none;html=1;shadow=0;labelBackgroundColor=none;startArrow=none;startFill=0;endArrow=classic;endFill=1;jettySize=auto;orthogonalLoop=1;strokeWidth=3;fontFamily=Helvetica;fontSize=16;fontColor=#23445D;spacing=5;fillColor=#e3c800;strokeColor=#660066;" parent="1" source="PjtQzTcsDSTkfEky3M2W-1767" target="w8jLu82rJHzHp2l2UyBu-1750" edge="1">
          <mxGeometry relative="1" as="geometry">
            <mxPoint x="901.6891923076923" y="-703" as="sourcePoint" />
            <mxPoint x="810.0025" y="-605" as="targetPoint" />
          </mxGeometry>
        </mxCell>
        <mxCell id="w8jLu82rJHzHp2l2UyBu-1752" value="double hashing" style="rounded=1;whiteSpace=wrap;html=1;shadow=0;labelBackgroundColor=none;strokeColor=none;strokeWidth=3;fillColor=#2F5B7C;fontFamily=Helvetica;fontSize=23;fontColor=#FFFFFF;align=center;fontStyle=0;spacing=5;arcSize=7;perimeterSpacing=2;glass=0;" parent="1" vertex="1">
          <mxGeometry x="1297" y="-759" width="114.31" height="72" as="geometry" />
        </mxCell>
        <mxCell id="w8jLu82rJHzHp2l2UyBu-1753" value="" style="edgeStyle=none;rounded=0;jumpStyle=none;html=1;shadow=0;labelBackgroundColor=none;startArrow=none;startFill=0;endArrow=classic;endFill=1;jettySize=auto;orthogonalLoop=1;strokeWidth=3;fontFamily=Helvetica;fontSize=16;fontColor=#23445D;spacing=5;fillColor=#e3c800;strokeColor=#660066;" parent="1" source="PjtQzTcsDSTkfEky3M2W-1767" target="w8jLu82rJHzHp2l2UyBu-1752" edge="1">
          <mxGeometry relative="1" as="geometry">
            <mxPoint x="1502" y="-735.3386434517265" as="sourcePoint" />
            <mxPoint x="1300.0025" y="-617" as="targetPoint" />
          </mxGeometry>
        </mxCell>
        <mxCell id="MLpekXMabOUfRqQ1HyhQ-1749" value="Bredth-First Search (BFS)" style="rounded=1;whiteSpace=wrap;html=1;shadow=0;labelBackgroundColor=none;strokeColor=none;strokeWidth=3;fillColor=#2F5B7C;fontFamily=Helvetica;fontSize=23;fontColor=#FFFFFF;align=center;fontStyle=0;spacing=5;arcSize=7;perimeterSpacing=2;horizontal=1;" parent="1" vertex="1">
          <mxGeometry x="2489" y="329" width="311" height="39" as="geometry" />
        </mxCell>
        <mxCell id="MLpekXMabOUfRqQ1HyhQ-1750" value="" style="edgeStyle=none;rounded=0;jumpStyle=none;html=1;shadow=0;labelBackgroundColor=none;startArrow=none;startFill=0;endArrow=classic;endFill=1;jettySize=auto;orthogonalLoop=1;strokeWidth=3;fontFamily=Helvetica;fontSize=16;fontColor=#23445D;spacing=5;fillColor=#e3c800;strokeColor=#660066;" parent="1" source="1749" target="MLpekXMabOUfRqQ1HyhQ-1749" edge="1">
          <mxGeometry relative="1" as="geometry">
            <mxPoint x="2431" y="410.1683518705763" as="sourcePoint" />
            <mxPoint x="2697" y="693" as="targetPoint" />
          </mxGeometry>
        </mxCell>
        <mxCell id="MLpekXMabOUfRqQ1HyhQ-1751" value="Depth-First Search (DFS)" style="rounded=1;whiteSpace=wrap;html=1;shadow=0;labelBackgroundColor=none;strokeColor=none;strokeWidth=3;fillColor=#2F5B7C;fontFamily=Helvetica;fontSize=23;fontColor=#FFFFFF;align=center;fontStyle=0;spacing=5;arcSize=7;perimeterSpacing=2;horizontal=1;" parent="1" vertex="1">
          <mxGeometry x="2486" y="276" width="311" height="39" as="geometry" />
        </mxCell>
        <mxCell id="MLpekXMabOUfRqQ1HyhQ-1752" value="" style="edgeStyle=none;rounded=0;jumpStyle=none;html=1;shadow=0;labelBackgroundColor=none;startArrow=none;startFill=0;endArrow=classic;endFill=1;jettySize=auto;orthogonalLoop=1;strokeWidth=3;fontFamily=Helvetica;fontSize=16;fontColor=#23445D;spacing=5;fillColor=#e3c800;strokeColor=#660066;" parent="1" source="1749" target="MLpekXMabOUfRqQ1HyhQ-1751" edge="1">
          <mxGeometry relative="1" as="geometry">
            <mxPoint x="2276.663023679417" y="654.5" as="sourcePoint" />
            <mxPoint x="2553" y="912.83" as="targetPoint" />
          </mxGeometry>
        </mxCell>
        <mxCell id="mkqtWSeavfe5quU6G-GT-1749" value="Insertion" style="rounded=1;whiteSpace=wrap;html=1;shadow=0;labelBackgroundColor=none;strokeColor=none;strokeWidth=3;fillColor=#2F5B7C;fontFamily=Helvetica;fontSize=23;fontColor=#FFFFFF;align=center;fontStyle=0;spacing=5;arcSize=7;perimeterSpacing=2;glass=0;" vertex="1" parent="1">
          <mxGeometry x="2263" y="576" width="137" height="54" as="geometry" />
        </mxCell>
        <mxCell id="mkqtWSeavfe5quU6G-GT-1750" value="" style="edgeStyle=none;rounded=0;jumpStyle=none;html=1;shadow=0;labelBackgroundColor=none;startArrow=none;startFill=0;endArrow=classic;endFill=1;jettySize=auto;orthogonalLoop=1;strokeWidth=3;fontFamily=Helvetica;fontSize=16;fontColor=#23445D;spacing=5;fillColor=#e3c800;strokeColor=#660066;" edge="1" parent="1" source="T0vurwcoZlo6JB8hRkQS-1782" target="mkqtWSeavfe5quU6G-GT-1749">
          <mxGeometry relative="1" as="geometry">
            <mxPoint x="2505.590909090909" y="706" as="sourcePoint" />
            <mxPoint x="2490.0454545454545" y="724" as="targetPoint" />
          </mxGeometry>
        </mxCell>
        <mxCell id="mkqtWSeavfe5quU6G-GT-1751" value="Prim&#39;s algorithm" style="rounded=1;whiteSpace=wrap;html=1;shadow=0;labelBackgroundColor=none;strokeColor=none;strokeWidth=3;fillColor=#2F5B7C;fontFamily=Helvetica;fontSize=23;fontColor=#FFFFFF;align=center;fontStyle=0;spacing=5;arcSize=7;perimeterSpacing=2;" vertex="1" parent="1">
          <mxGeometry x="1839" y="533" width="139" height="64" as="geometry" />
        </mxCell>
        <mxCell id="mkqtWSeavfe5quU6G-GT-1752" value="MST&lt;br&gt;" style="rounded=1;whiteSpace=wrap;html=1;shadow=0;labelBackgroundColor=none;strokeColor=none;strokeWidth=3;fillColor=#2F5B7C;fontFamily=Helvetica;fontSize=23;fontColor=#FFFFFF;align=center;fontStyle=0;spacing=5;arcSize=7;perimeterSpacing=2;" vertex="1" parent="1">
          <mxGeometry x="2046" y="533" width="139" height="64" as="geometry" />
        </mxCell>
        <mxCell id="mkqtWSeavfe5quU6G-GT-1753" value="" style="edgeStyle=none;rounded=0;jumpStyle=none;html=1;shadow=0;labelBackgroundColor=none;startArrow=none;startFill=0;endArrow=classic;endFill=1;jettySize=auto;orthogonalLoop=1;strokeWidth=3;fontFamily=Helvetica;fontSize=16;fontColor=#23445D;spacing=5;fillColor=#e3c800;strokeColor=#660066;" edge="1" parent="1" source="mkqtWSeavfe5quU6G-GT-1752" target="mkqtWSeavfe5quU6G-GT-1751">
          <mxGeometry relative="1" as="geometry">
            <mxPoint x="1420.6363043478264" y="26.999999999999773" as="sourcePoint" />
            <mxPoint x="1449.673695652174" y="51" as="targetPoint" />
          </mxGeometry>
        </mxCell>
        <mxCell id="mkqtWSeavfe5quU6G-GT-1754" value="undirected" style="rounded=1;whiteSpace=wrap;html=1;shadow=0;labelBackgroundColor=none;strokeColor=none;strokeWidth=3;fillColor=#2F5B7C;fontFamily=Helvetica;fontSize=23;fontColor=#FFFFFF;align=center;fontStyle=0;spacing=5;arcSize=7;perimeterSpacing=2;" vertex="1" parent="1">
          <mxGeometry x="1105" y="-73" width="139" height="64" as="geometry" />
        </mxCell>
        <mxCell id="mkqtWSeavfe5quU6G-GT-1755" value="" style="edgeStyle=none;rounded=0;jumpStyle=none;html=1;shadow=0;labelBackgroundColor=none;startArrow=none;startFill=0;endArrow=classic;endFill=1;jettySize=auto;orthogonalLoop=1;strokeWidth=3;fontFamily=Helvetica;fontSize=16;fontColor=#23445D;spacing=5;fillColor=#e3c800;strokeColor=#660066;" edge="1" parent="1" target="mkqtWSeavfe5quU6G-GT-1754" source="T0vurwcoZlo6JB8hRkQS-1798">
          <mxGeometry relative="1" as="geometry">
            <mxPoint x="1373" y="-149.00103512014803" as="sourcePoint" />
            <mxPoint x="1440.0000000000005" y="-27.24045977011511" as="targetPoint" />
          </mxGeometry>
        </mxCell>
        <mxCell id="mkqtWSeavfe5quU6G-GT-1756" value="directed" style="rounded=1;whiteSpace=wrap;html=1;shadow=0;labelBackgroundColor=none;strokeColor=none;strokeWidth=3;fillColor=#2F5B7C;fontFamily=Helvetica;fontSize=23;fontColor=#FFFFFF;align=center;fontStyle=0;spacing=5;arcSize=7;perimeterSpacing=2;" vertex="1" parent="1">
          <mxGeometry x="1107" y="-153" width="139" height="64" as="geometry" />
        </mxCell>
        <mxCell id="mkqtWSeavfe5quU6G-GT-1757" value="" style="edgeStyle=none;rounded=0;jumpStyle=none;html=1;shadow=0;labelBackgroundColor=none;startArrow=none;startFill=0;endArrow=classic;endFill=1;jettySize=auto;orthogonalLoop=1;strokeWidth=3;fontFamily=Helvetica;fontSize=16;fontColor=#23445D;spacing=5;fillColor=#e3c800;strokeColor=#660066;" edge="1" parent="1" target="mkqtWSeavfe5quU6G-GT-1756" source="T0vurwcoZlo6JB8hRkQS-1798">
          <mxGeometry relative="1" as="geometry">
            <mxPoint x="1366" y="-65.00103512014803" as="sourcePoint" />
            <mxPoint x="1433.0000000000005" y="56.75954022988489" as="targetPoint" />
          </mxGeometry>
        </mxCell>
        <mxCell id="mkqtWSeavfe5quU6G-GT-1758" value="Kruskal&#39;s&lt;br&gt;algorithm" style="rounded=1;whiteSpace=wrap;html=1;shadow=0;labelBackgroundColor=none;strokeColor=none;strokeWidth=3;fillColor=#2F5B7C;fontFamily=Helvetica;fontSize=23;fontColor=#FFFFFF;align=center;fontStyle=0;spacing=5;arcSize=7;perimeterSpacing=2;" vertex="1" parent="1">
          <mxGeometry x="1860" y="666" width="139" height="64" as="geometry" />
        </mxCell>
        <mxCell id="mkqtWSeavfe5quU6G-GT-1759" value="" style="edgeStyle=none;rounded=0;jumpStyle=none;html=1;shadow=0;labelBackgroundColor=none;startArrow=none;startFill=0;endArrow=classic;endFill=1;jettySize=auto;orthogonalLoop=1;strokeWidth=3;fontFamily=Helvetica;fontSize=16;fontColor=#23445D;spacing=5;fillColor=#e3c800;strokeColor=#660066;" edge="1" parent="1" target="mkqtWSeavfe5quU6G-GT-1758" source="1749">
          <mxGeometry relative="1" as="geometry">
            <mxPoint x="2065" y="698" as="sourcePoint" />
            <mxPoint x="1470.673695652174" y="184" as="targetPoint" />
          </mxGeometry>
        </mxCell>
        <mxCell id="mkqtWSeavfe5quU6G-GT-1760" value="" style="edgeStyle=none;rounded=0;jumpStyle=none;html=1;shadow=0;labelBackgroundColor=none;startArrow=none;startFill=0;endArrow=classic;endFill=1;jettySize=auto;orthogonalLoop=1;strokeWidth=3;fontFamily=Helvetica;fontSize=16;fontColor=#23445D;spacing=5;fillColor=#e3c800;strokeColor=#660066;" edge="1" parent="1" source="1749" target="mkqtWSeavfe5quU6G-GT-1752">
          <mxGeometry relative="1" as="geometry">
            <mxPoint x="2405.000000000001" y="535.4090029041631" as="sourcePoint" />
            <mxPoint x="2236" y="535" as="targetPoint" />
          </mxGeometry>
        </mxCell>
      </root>
    </mxGraphModel>
  </diagram>
</mxfile>
